<?xml version="1.0" encoding="UTF-8"?>
<svg width="524px" height="74px" viewBox="0 0 524 74" version="1.1" xmlns="http://www.w3.org/2000/svg" xmlns:xlink="http://www.w3.org/1999/xlink">
    <title>goldlabel_logo</title>
    <g id="Page-1" stroke="none" stroke-width="1" fill="none" fill-rule="evenodd">
        <g id="goldlabel_logo" transform="translate(3, 3)" fill-rule="nonzero" stroke="#222222" stroke-width="5">
            <path d="M87.9348534,34 L67.2945893,63.0214285 C66.2361141,64.4785715 64.9740862,65.6726192 63.5085052,66.6035715 C62.0429245,67.5345238 60.4145012,68 58.6232357,68 L7.32790438,68 C5.3127308,68 3.58761989,67.2866071 2.15257194,65.8598214 C0.717523973,64.4330356 0,62.7178572 0,60.7142857 L0,7.28571425 C0,5.28214276 0.717523973,3.56696436 2.15257194,2.14017862 C3.58761989,0.713392873 5.3127308,1.42108547e-14 7.32790438,1.42108547e-14 L58.6232357,1.42108547e-14 C60.4145012,1.42108547e-14 62.0429245,0.465476169 63.5085052,1.39642851 C64.9740862,2.32738085 66.2361141,3.52142851 67.2945893,4.97857149 L87.9348534,34 Z" id="labelBlack"></path>
        </g>
    </g>
</svg>